{"title":"Sabotage 2014 720p Bluray DTS x264 Worldwide7477","uid":10556564,"size":3413755078,"categoryP":"video","categoryS":"hd___movies","magnet":"?xt=urn:btih:3a0dc6621adb1791156f7a55da3704960522d53c&amp;dn=Sabotage+2014+720p+Bluray+DTS+x264+Worldwide7477&amp;tr=udp%3A%2F%2Ftracker.openbittorrent.com%3A80&amp;tr=udp%3A%2F%2Fopen.demonii.com%3A1337&amp;tr=udp%3A%2F%2Ftracker.coppersurfer.tk%3A6969&amp;tr=udp%3A%2F%2Fexodus.desync.com%3A6969","seeders":1,"leechers":0,"uploader":"WW7477","files":-1,"time":1405400442,"description":"Complete name                            : C:UsersAdministratorDownloadsMy TorrentsSabotage 2014 720p Bluray DTS x264 Worldwide7477Sabotage 2014 720p Bluray DTS x264 Worldwide7477.mkv\nFormat                                   : Matroska\nFormat version                           : Version 4 / Version 2\nFile size                                : 3.11 GiB\nDuration                                 : 1h 49mn\nOverall bit rate                         : 4 057 Kbps\nMovie name                               : Sabotage 2014 720p Bluray Encoder Worldwide7477\nEncoded date                             : UTC 2014-07-15 02:05:12\nWriting application                      : mkvmerge v7.0.0 ('Where We Going') 64bit built on Jun  9 2014 15:16:27\n\nVideo\nID                                       : 1\nFormat                                   : AVC\nFormat/Info                              : Advanced Video Codec\nFormat profile                           : &lt;a class=&quot;__cf_email__&quot; href=&quot;/cdn-cgi/l/email-protection&quot; data-cfemail=&quot;5018393738101c637e61&quot;&gt;[email&amp;#160;protected]&lt;/a&gt;&lt;script cf-hash='f9e31' type=&quot;text/javascript&quot;&gt;\n/* &lt;![CDATA[ */!function(){try{var t=&quot;currentScript&quot;in document?document.currentScript:function(){for(var t=document.getElementsByTagName(&quot;script&quot;),e=t.length;e--;)if(t[e].getAttribute(&quot;cf-hash&quot;))return t[e]}();if(t&amp;&amp;t.previousSibling){var e,r,n,i,c=t.previousSibling,a=c.getAttribute(&quot;data-cfemail&quot;);if(a){for(e=&quot;&quot;,r=parseInt(a.substr(0,2),16),n=2;a.length-n;n+=2)i=parseInt(a.substr(n,2),16)^r,e+=String.fromCharCode(i);e=document.createTextNode(e),c.parentNode.replaceChild(e,c)}}}catch(u){}}();/* ]]&gt; */&lt;/script&gt;\nFormat settings, CABAC                   : Yes\nFormat settings, ReFrames                : 4 frames\nCodec ID                                 : V_MPEG4/ISO/AVC\nDuration                                 : 1h 49mn\nBit rate                                 : 3 299 Kbps\nWidth                                    : 1 280 pixels\nHeight                                   : 696 pixels\nDisplay aspect ratio                     : 1.85:1\nFrame rate mode                          : Constant\nFrame rate                               : 23.976 fps\nColor space                              : YUV\nChroma subsampling                       : 4:2:0\nBit depth                                : 8 bits\nScan type                                : Progressive\nBits/(Pixel*Frame)                       : 0.154\nStream size                              : 2.47 GiB (79%)\nTitle                                    : Sabotage 2014 720p Bluray DTS x264 Worldwide7477\n\nLanguage                                 : English\nDefault                                  : Yes\nForced                                   : No\n\nAudio\nID                                       : 2\nFormat                                   : DTS\nFormat/Info                              : Digital Theater Systems\nMode                                     : 16\nFormat settings, Endianness              : Big\nCodec ID                                 : A_DTS\nDuration                                 : 1h 49mn\nBit rate mode                            : Constant\nBit rate                                 : 755 Kbps\nChannel(s)                               : 6 channels\nChannel positions                        : Front: L C R, Side: L R, LFE\nSampling rate                            : 48.0 KHz\nBit depth                                : 24 bits\nCompression mode                         : Lossy\nStream size                              : 592 MiB (19%)\nTitle                                    : Worldwide7477 (DTS)\nLanguage                                 : English\nDefault                                  : Yes\nForced                                   : No\n\nText #1\nID                                       : 3\nFormat                                   : UTF-8\nCodec ID                                 : S_TEXT/UTF8\nCodec ID/Info                            : UTF-8 Plain Text\nTitle                                    : Worldwide7477\nLanguage                                 : English\nDefault                                  : Yes\nForced                                   : No\n\nText #2\nID                                       : 4\nFormat                                   : UTF-8\nCodec ID                                 : S_TEXT/UTF8\nCodec ID/Info                            : UTF-8 Plain Text\nTitle                                    : Worldwide7477\nLanguage                                 : French\nDefault                                  : No\nForced                                   : No\n\nText #3\nID                                       : 5\nFormat                                   : UTF-8\nCodec ID                                 : S_TEXT/UTF8\nCodec ID/Info                            : UTF-8 Plain Text\nTitle                                    : Worldwide7477\nLanguage                                 : Spanish\nDefault                                  : No\nForced                                   : No\n\nMenu\n00:00:00.000                             : :Chapter 1\n00:05:00.000                             : :Chapter 2\n00:10:00.000                             : :Chapter 3\n00:15:00.000                             : :Chapter 4\n00:20:00.000                             : :Chapter 5\n00:25:00.000                             : :Chapter 6\n00:30:00.000                             : :Chapter 7\n00:35:00.000                             : :Chapter 8\n00:40:00.000                             : :Chapter 9\n00:45:00.000                             : :Chapter 10\n00:50:00.000                             : :Chapter 11\n00:55:00.000                             : :Chapter 12\n01:00:00.000                             : :Chapter 13\n01:05:00.000                             : :Chapter 14\n01:10:00.000                             : :Chapter 15\n01:15:00.000                             : :Chapter 16\n01:20:00.000                             : :Chapter 17\n01:25:00.000                             : :Chapter 18\n01:30:00.000                             : :Chapter 19\n01:35:00.000                             : :Chapter 20\n01:40:00.000                             : :Chapter 21\n01:45:00.000                             : :Chapter 22\n\n","torrent":{"xt":"urn:btih:3a0dc6621adb1791156f7a55da3704960522d53c","amp;dn":"Sabotage+2014+720p+Bluray+DTS+x264+Worldwide7477","amp;tr":["udp%3A%2F%2Ftracker.openbittorrent.com%3A80","udp%3A%2F%2Fopen.demonii.com%3A1337","udp%3A%2F%2Ftracker.coppersurfer.tk%3A6969","udp%3A%2F%2Fexodus.desync.com%3A6969"],"infoHash":"3a0dc6621adb1791156f7a55da3704960522d53c","infoHashBuffer":{"type":"Buffer","data":[58,13,198,98,26,219,23,145,21,111,122,85,218,55,4,150,5,34,213,60]},"announce":[],"urlList":[]}}